<svg xmlns="http://www.w3.org/2000/svg" width="97" height="43" viewBox="0 0 97 43">
    <g fill="none" fill-rule="nonzero">
        <path fill="#272727" d="M56.589.42c3.55 0 6.74.745 9.572 2.236 2.83 1.49 5.053 3.551 6.669 6.183 1.615 2.632 2.423 5.597 2.423 8.895 0 3.742-1.032 7.047-3.095 9.917s-4.838 4.923-8.324 6.16c.64.697 1.271 1.189 1.895 1.474a4.842 4.842 0 0 0 2.039.428c1.887 0 3.582-.777 5.086-2.33l4.126 4.851a10.972 10.972 0 0 1-4.102 3.116c-1.616.713-3.383 1.07-5.302 1.07-1.855 0-3.535-.238-5.038-.713-1.503-.476-3.015-1.26-4.534-2.355-1.52-1.094-3.223-2.624-5.11-4.59-2.91-.476-5.502-1.506-7.773-3.092-2.27-1.585-4.038-3.583-5.301-5.993-1.264-2.41-1.896-5.058-1.896-7.943 0-3.298.808-6.263 2.423-8.895 1.616-2.632 3.839-4.693 6.67-6.183C49.847 1.166 53.038.42 56.589.42zm-36.897 0c3.135 0 5.95.523 8.445 1.57 2.495 1.046 4.574 2.552 6.237 4.518l-6.046 5.423c-2.27-2.474-4.99-3.71-8.156-3.71-2.879 0-5.198.864-6.957 2.592-1.76 1.728-2.639 4.035-2.639 6.92 0 1.84.4 3.48 1.2 4.924a8.563 8.563 0 0 0 3.358 3.377c1.44.808 3.087 1.213 4.942 1.213 1.823 0 3.534-.365 5.134-1.094V17.02h8.396v13.794c-1.919 1.364-4.126 2.41-6.62 3.14a26.562 26.562 0 0 1-7.486 1.093c-3.518 0-6.685-.737-9.5-2.211-2.815-1.475-5.022-3.528-6.621-6.16C1.779 24.044.98 21.063.98 17.734c0-3.33.8-6.31 2.399-8.943 1.6-2.631 3.822-4.685 6.67-6.16C12.894 1.158 16.108.42 19.691.42zm36.897 7.8c-1.696 0-3.231.397-4.606 1.19-1.376.793-2.463 1.91-3.263 3.353-.8 1.443-1.2 3.1-1.2 4.97 0 1.872.4 3.528 1.2 4.971.8 1.443 1.887 2.56 3.263 3.354 1.375.792 2.91 1.189 4.606 1.189 1.695 0 3.23-.397 4.606-1.19 1.375-.792 2.463-1.91 3.262-3.353.8-1.443 1.2-3.1 1.2-4.97 0-1.871-.4-3.528-1.2-4.97-.8-1.444-1.887-2.561-3.262-3.354-1.376-.793-2.911-1.19-4.606-1.19z"/>
        <path fill="#2AC653" d="M91.48 34.42c-1.544 0-2.846-.521-3.908-1.564-1.061-1.043-1.592-2.363-1.592-3.96 0-1.63.523-2.95 1.568-3.96 1.045-1.01 2.356-1.516 3.932-1.516 1.608 0 2.927.505 3.956 1.516 1.03 1.01 1.544 2.33 1.544 3.96 0 1.597-.523 2.917-1.568 3.96-1.045 1.043-2.356 1.564-3.932 1.564z"/>
    </g>
</svg>
